<svg width="325" height="202" viewBox="0 0 325 202" fill="none" xmlns="http://www.w3.org/2000/svg">
<path d="M299.535 143.288C296.606 140.36 291.857 140.36 288.929 143.288C286 146.218 286 150.966 288.929 153.895L298.932 163.898H291.453C248.294 163.898 207.72 147.091 177.203 116.574L167.176 106.547L187.76 85.963C217.541 56.181 256.903 39.466 298.895 38.677L288.93 48.642C286.001 51.572 286.001 56.32 288.93 59.249C290.394 60.713 292.314 61.445 294.233 61.445C296.152 61.445 298.072 60.713 299.536 59.249L322.343 36.442C325.272 33.512 325.272 28.764 322.343 25.835L299.536 3.028C296.607 0.100001 291.858 0.100001 288.93 3.028C286.001 5.958 286.001 10.706 288.93 13.635L298.97 23.675C252.942 24.447 209.785 42.723 177.153 75.355L156.569 95.939L135.985 75.355C102.635 42.005 58.294 23.638 11.128 23.638H10.42C6.278 23.638 2.92 26.995 2.92 31.138C2.92 35.281 6.278 38.638 10.42 38.638H11.128C54.287 38.638 94.862 55.445 125.378 85.962L145.962 106.546L135.935 116.573C105.418 147.091 64.843 163.897 21.685 163.897H7.5C3.358 163.897 0 167.254 0 171.397C0 175.54 3.358 178.897 7.5 178.897H21.683C68.849 178.897 113.19 160.53 146.54 127.18L156.568 117.152L166.596 127.18C199.946 160.53 244.287 178.897 291.453 178.897H298.932L288.929 188.9C286 191.83 286 196.578 288.929 199.507C290.393 200.971 292.313 201.703 294.232 201.703C296.151 201.703 298.071 200.971 299.535 199.507L322.342 176.7C325.271 173.77 325.271 169.022 322.342 166.093L299.535 143.288Z" fill="white"/>
</svg>
