<svg width="464" height="533" viewBox="0 0 464 533" fill="none" xmlns="http://www.w3.org/2000/svg">
<path d="M457.187 90.7396L371.257 5.88386C363.354 -1.9186 350.505 -1.96544 342.548 5.77143C334.591 13.5083 334.537 26.0974 342.433 33.8936L414.122 104.689L342.487 174.875C334.557 182.638 334.557 195.234 342.487 202.997C346.453 206.882 351.642 208.825 356.839 208.825C362.035 208.825 367.231 206.882 371.196 203.004L457.128 118.811C465.036 111.066 465.057 98.5161 457.187 90.7396Z" fill="white"/>
<path d="M443.446 84.8526H20.5576C9.346 84.8526 0.259449 93.7555 0.259449 104.74V258.542C0.259449 269.527 9.346 278.43 20.5576 278.43C31.7691 278.43 40.8557 269.527 40.8557 258.542V124.629H443.445C454.656 124.629 463.743 115.726 463.743 104.741C463.744 93.7565 454.657 84.8526 443.446 84.8526Z" fill="white"/>
<path d="M49.2123 428.309L120.846 358.13C128.77 350.367 128.777 337.778 120.846 330.008C112.917 322.238 100.061 322.238 92.1375 330.008L6.20629 414.194C-1.703 421.938 -1.73063 434.487 6.14573 442.264L92.077 527.119C96.0486 531.038 101.272 533 106.489 533C111.658 533 116.828 531.077 120.786 527.233C128.743 519.496 128.797 506.907 120.901 499.104L49.2123 428.309Z" fill="white"/>
<path d="M442.769 247.936C431.557 247.936 422.471 256.839 422.471 267.824V408.367H20.5576C9.346 408.367 0.259449 417.27 0.259449 428.254C0.259449 439.239 9.346 448.142 20.5576 448.142H442.776C453.988 448.142 463.074 439.239 463.068 428.254V267.825C463.067 256.84 453.98 247.936 442.769 247.936Z" fill="white"/>
</svg>
