<svg width="718" height="533" viewBox="0 0 718 533" fill="none" xmlns="http://www.w3.org/2000/svg">
<path d="M662.68 377.999C656.2 370.23 645.694 370.23 639.216 377.999C632.736 385.774 632.736 398.372 639.216 406.144L661.346 432.687H644.8C549.317 432.687 459.552 388.09 392.038 307.115L369.854 280.509L415.393 225.89C481.28 146.865 568.363 102.513 661.265 100.42L639.218 126.861C632.738 134.636 632.738 147.234 639.218 155.006C642.457 158.891 646.705 160.833 650.95 160.833C655.196 160.833 659.444 158.891 662.683 155.006L713.14 94.4892C719.62 86.7146 719.62 74.116 713.14 66.3441L662.683 5.82696C656.203 -1.94232 645.696 -1.94232 639.218 5.82696C632.738 13.6016 632.738 26.2001 639.218 33.9721L661.43 60.6126C559.6 62.6611 464.121 111.155 391.927 197.743L346.388 252.361L300.848 197.743C227.066 109.25 128.968 60.5144 24.6192 60.5144H23.0528C13.8892 60.5144 6.4601 69.4221 6.4601 80.4153C6.4601 91.4085 13.8892 100.316 23.0528 100.316H24.6192C120.103 100.316 209.869 144.913 277.382 225.888L322.921 280.506L300.738 307.112C233.223 388.09 143.456 432.684 47.9751 432.684H16.5927C7.42912 432.684 0 441.592 0 452.585C0 463.578 7.42912 472.486 16.5927 472.486H47.9707C152.319 472.486 250.417 423.75 324.2 335.257L346.385 308.649L368.571 335.257C442.353 423.75 540.452 472.486 644.8 472.486H661.346L639.216 499.028C632.736 506.803 632.736 519.401 639.216 527.173C642.455 531.058 646.703 533 650.948 533C655.194 533 659.442 531.058 662.68 527.173L713.138 466.656C719.618 458.881 719.618 446.283 713.138 438.511L662.68 377.999Z" fill="white"/>
</svg>
